<svg width="0" height="0" class="hidden">
  <symbol xmlnsDc="http://purl.org/dc/elements/1.1/" xmlnsCc="http://creativecommons.org/ns#" xmlnsRdf="http://www.w3.org/1999/02/22-rdf-syntax-ns#" xmlnsSvg="http://www.w3.org/2000/svg" xmlns="http://www.w3.org/2000/svg" xmlnsSodipodi="http://sodipodi.sourceforge.net/DTD/sodipodi-0.dtd" xmlnsInkscape="http://www.inkscape.org/namespaces/inkscape" version="1.1" id="bin" inkscapeVersion="0.92.1 r15371" sodipodiDocname="FX13_trashcan.svg" viewBox="0 0 77.665588 98.016968">
    <defs id="defs2"></defs>
    <sodipodi:namedview id="base" pagecolor="#ffffff" bordercolor="#666666" borderopacity="1.0" inkscapePageopacity="0.0" inkscapePageshadow="2" inkscapeZoom="0.49497475" inkscapeCx="80.451082" inkscapeCy="190.59156" inkscapeDocumentUnits="mm" inkscapeCurrentLayer="layer1" showgrid="false" inkscapeWindowWidth="1920" inkscapeWindowHeight="1016" inkscapeWindowX="0" inkscapeWindowY="27" inkscapeWindowMaximized="1" inkscapeSnapGlobal="false" fitMarginTop="0" fitMarginLeft="0" fitMarginRight="0" fitMarginBottom="0"></sodipodi:namedview>
    <metadata id="metadata5">
      <rdf:RDF>
        <cc:Work rdfAbout="">
          <dc:format>image/svg+xml</dc:format>
          <dc:type rdfResource="http://purl.org/dc/dcmitype/StillImage"></dc:type>
          <dc:title></dc:title>
        </cc:Work>
      </rdf:RDF>
    </metadata>
    <g inkscapeLabel="Layer 1" inkscapeGroupmode="layer" id="layer1" transform="translate(-72.670177,-123.3438)">
      <g id="g4756" transform="matrix(0.88976972,0,0,0.79780373,12.291004,40.307806)">
        <path sodipodiNodetypes="cccsccsc" inkscapeConnectorCurvature="0" id="path4745" d="m 132.19717,120.20163 3.30729,4.44122 5.85863,1.32292 c 0,0 7.37054,-4.25223 6.61459,-4.44122 -0.75595,-0.18899 -2.55134,0.37798 -4.06325,-2.07887 -1.5119,-2.45684 -2.55134,-2.92931 -2.55134,-2.92931 0,0 -1.88988,4.15773 -3.59077,2.45684 -1.70089,-1.70089 -5.57515,1.22842 -5.57515,1.22842 z"></path>
        <path inkscapeConnectorCurvature="0" id="path4749" d="m 134.8522,123.91906 c 0.74692,0.15 7.15863,1.85604 7.15863,1.85604 0,0 -0.003,1.32629 -0.37333,1.20417 -0.36997,-0.12212 -7.23195,-2.14573 -7.23195,-2.14573 z"></path>
        <path sodipodiNodetypes="cczscc" inkscapeConnectorCurvature="0" id="path4747" d="m 135.50446,124.64285 5.85863,1.32292 c 0,0 -1.74357,63.44303 -3.96875,84.09971 -2.22519,20.65667 -14.557,-1.95261 -43.08928,10.01636 -21.1715,8.88121 -11.558186,-75.17162 2.456844,-80.8869 11.528266,-5.48066 38.742556,-14.55209 38.742556,-14.55209 z"></path>
      </g>
      <path d="m 77.850991,140.68176 h 33.736059 33.73607 c 1.5032,0 2.94504,1.40811 2.71336,3.11101 l -10.12987,74.45699 c -0.23169,1.70291 -1.21016,3.11101 -2.71335,3.11101 H 87.980855 c -1.503199,0 -2.481675,-1.4081 -2.713356,-3.11101 L 75.137635,143.79277 c -0.23168,-1.7029 1.210156,-3.11101 2.713356,-3.11101 z" id="rect4487" inkscapeConnectorCurvature="0" sodipodiNodetypes="scssssssss"></path>
      <path d="m 85.212723,217.8473 0.05472,0.40233 c 0.23168,1.7029 1.210087,3.11102 2.713287,3.11102 h 47.21239 c 1.50319,0 2.4816,-1.40812 2.71328,-3.11102 l 0.0547,-0.40233 z" id="rect4487-5" inkscapeConnectorCurvature="0"></path>
      <path d="m 108.61771,146.75807 h 6.15434 l -0.47084,68.72661 h -5.21266 c 0,0 -1.06535,-68.72661 -0.47084,-68.72661 z" id="rect4634" inkscapeConnectorCurvature="0" sodipodiNodetypes="ccccc"></path>
      <path d="m 121.33031,146.75807 h 6.15433 l -2.82502,68.72661 h -5.21265 c 0,0 1.28882,-68.72661 1.88334,-68.72661 z" id="rect4634-6" inkscapeConnectorCurvature="0" sodipodiNodetypes="ccccc"></path>
      <path d="m 95.905126,146.75807 h 6.154324 l 1.88334,68.72661 h -5.212643 c 0,0 -3.419539,-68.72661 -2.825021,-68.72661 z" id="rect4634-2" inkscapeConnectorCurvature="0" sodipodiNodetypes="ccccc"></path>
      <path d="m 83.19254,146.75807 h 6.154323 c 0.475617,0.23781 4.237526,68.72661 4.237526,68.72661 h -5.212645 c 0,0 -5.773722,-68.72661 -5.179204,-68.72661 z" id="rect4634-2-9" inkscapeConnectorCurvature="0" sodipodiNodetypes="ccccc"></path>
      <path d="m 134.04291,146.75807 h 6.15433 l -5.1792,68.72661 h -5.21266 c 0,0 3.64301,-68.72661 4.23753,-68.72661 z" id="rect4634-6-1" inkscapeConnectorCurvature="0" sodipodiNodetypes="ccccc"></path>
      <g id="g4741" transform="matrix(0.88976972,0,0,0.88976972,12.291004,18.830285)">
        <path sodipodiNodetypes="csccsssccc" inkscapeConnectorCurvature="0" id="path4485-3" d="m 155.14662,137.1276 c 0,5.99565 -19.53993,10.85608 -43.64365,10.85608 -24.103722,0 -43.643649,-4.86043 -43.643645,-10.85608 -10e-7,-1.49891 0.03119,-4.5797 0.03119,-4.5797 0,0 8.80277,-2.11442 12.751743,-3.09671 7.897947,-1.96456 18.808858,-3.17967 30.860722,-3.17967 12.05186,0 22.96277,1.21511 30.86071,3.17967 3.94897,0.98229 12.68094,3.45073 12.68094,3.45073 0,0 0.10195,2.72677 0.10195,4.22568 z"></path>
        <ellipse ry="10.856083" rx="43.643642" cy="132.5459" cx="111.50297" id="path4485"></ellipse>
        <g transform="translate(0,48.002977)" id="g4606">
          <rect id="rect4571" width="29.482143" height="5.8586307" x="96.761909" y="69.458336"></rect>
          <rect id="rect4571-6" width="8.8824406" height="3.7797616" x="75.316963" y="-100.54167" transform="rotate(90)"></rect>
          <rect id="rect4571-6-7" width="8.8824406" height="3.7797616" x="75.316963" y="-126.24405" transform="rotate(90)"></rect>
        </g>
      </g>
    </g>
  </symbol>
  <symbol xmlnsInkscape="http://www.inkscape.org/namespaces/inkscape" xmlnsRdf="http://www.w3.org/1999/02/22-rdf-syntax-ns#" xmlns="http://www.w3.org/2000/svg" xmlns:xlink="http://www.w3.org/1999/xlink" xmlnsNs1="http://sozi.baierouge.fr" xmlnsCc="http://creativecommons.org/ns#" xmlnsDc="http://purl.org/dc/elements/1.1/" xmlnsSodipodi="http://sodipodi.sourceforge.net/DTD/sodipodi-0.dtd" id="edit" sodipodiDocname="edit-icon.svg" version="1.1" inkscapeVersion="0.48.4 r9939" viewBox="0 0 581.98 744.96">
    <sodipodi:namedview id="base" bordercolor="#666666" inkscapePageshadow="2" inkscapeWindowY="24" fitMarginLeft="0" pagecolor="#ffffff" inkscapeWindowHeight="844" inkscapeWindowMaximized="0" inkscapeZoom="0.17110443" inkscapeWindowX="0" showgrid="false" borderopacity="1.0" inkscapeCurrentLayer="layer1" inkscapeCx="1337.0235" inkscapeCy="-553.48697" fitMarginTop="0" fitMarginRight="0" fitMarginBottom="0" inkscapeWindowWidth="1589" inkscapePageopacity="0.0" inkscapeDocumentUnits="px"></sodipodi:namedview>
    <g id="layer1" inkscapeLabel="Layer 1" inkscapeGroupmode="layer" transform="translate(-105.03 -121.31)">
      <g id="g4885">
        <g id="g4830" transform="matrix(11.996 0 0 11.996 -1026.7 -3323.3)">
          <path id="path11535" sodipodiNodetypes="sccccscccccccccccccccccccc" inkscapeConnectorCurvature="0" d="m139.16 289.02c-1.2148-0.82153-2.4093-1.383-3.6056-1.8664l-1.2844 1.7675 7.3028 5.3067 1.2844-1.7675c-1.2539-1.5418-2.4824-2.6188-3.6972-3.4403zm-5.7164 1.0383-1.2844 1.7675 7.3028 5.3067 1.2844-1.7675zm-2.2202 3.0554-17.334 23.854 3.9697 1.2896 16.735-22.702zm4.0836 3.0131-16.643 22.656 2.2523 3.5376 17.61-23.9zm-21.862 21.863-1.8834 9.5262 8.3239-4.591-2.3632-3.5249z"></path>
          <path id="rect4819" sodipodiNodetypes="ssssssccssssssccs" inkscapeConnectorCurvature="0" d="m101.62 290.19c-4.0274 0-7.2812 3.2539-7.2812 7.2812v44.531c0 4.0274 3.2539 7.25 7.2812 7.25h29.75c4.0274 0 7.2812-3.2226 7.2812-7.25v-34.844l-4.4375 6v27.156c0 2.4813-1.9874 4.5-4.4688 4.5h-26.5c-2.4813 0-4.4688-2.0187-4.4688-4.5v-41.188c0-2.4813 1.9874-4.4688 4.4688-4.4688h21.127l2.8419-4.4688z"></path>
        </g>
      </g>
    </g>
    <metadata>
      <rdf:RDF>
        <cc:Work>
          <dc:format>image/svg+xml</dc:format>
          <dc:type rdfResource="http://purl.org/dc/dcmitype/StillImage"></dc:type>
          <cc:license rdfResource="http://creativecommons.org/licenses/publicdomain/"></cc:license>
          <dc:publisher>
            <cc:Agent rdfAbout="http://openclipart.org/">
              <dc:title>Openclipart</dc:title>
            </cc:Agent>
          </dc:publisher>
        </cc:Work>
        <cc:License rdfAbout="http://creativecommons.org/licenses/publicdomain/">
          <cc:permits rdfResource="http://creativecommons.org/ns#Reproduction"></cc:permits>
          <cc:permits rdfResource="http://creativecommons.org/ns#Distribution"></cc:permits>
          <cc:permits rdfResource="http://creativecommons.org/ns#DerivativeWorks"></cc:permits>
        </cc:License>
      </rdf:RDF>
    </metadata>
  </symbol>
  <symbol xmlnsInkscape="http://www.inkscape.org/namespaces/inkscape" xmlnsRdf="http://www.w3.org/1999/02/22-rdf-syntax-ns#" xmlns="http://www.w3.org/2000/svg" xmlnsDc="http://purl.org/dc/elements/1.1/" xmlnsNs1="http://sozi.baierouge.fr" xmlnsCc="http://web.resource.org/cc/" xmlns:xlink="http://www.w3.org/1999/xlink" xmlnsSodipodi="http://sodipodi.sourceforge.net/DTD/sodipodi-0.dtd" id="cross" sodipodiDocname="edit_add.svg" sodipodiVersion="0.32" _SVGFile__filename="oldscale/actions/edit_add.svg" version="1.0" y="0" x="0" inkscapeVersion="0.40" sodipodiDocbase="/home/danny/work/flat/SVG/mono/scalable/actions" viewBox="0 0 60 60">
    <sodipodi:namedview id="base" bordercolor="#666666" inkscapePageshadow="2" inkscapeWindowY="0" pagecolor="#ffffff" inkscapeWindowHeight="699" inkscapeZoom="2.2997497" inkscapeWindowX="0" borderopacity="1.0" inkscapeCurrentLayer="svg1" inkscapeCx="61.037632" inkscapeCy="35.701265" inkscapeWindowWidth="1024" inkscapePageopacity="0.0"></sodipodi:namedview>
    <path id="path1092" d="m23.78 23.78v-13.999c0-1.9588 0.536-3.55 1.607-4.7741 1.071-1.2546 2.601-1.8819 4.59-1.8819s3.519 0.6273 4.59 1.8819c1.102 1.2241 1.653 2.8153 1.653 4.7737v13.999h13.816c2.019 0 3.611 0.551 4.773 1.653 1.194 1.071 1.791 2.586 1.791 4.544 0 1.989-0.597 3.534-1.791 4.636-1.162 1.102-2.754 1.652-4.773 1.652h-13.816v13.954c0 1.989-0.551 3.596-1.653 4.82-1.101 1.224-2.632 1.836-4.59 1.836s-3.488-0.612-4.59-1.836c-1.071-1.224-1.607-2.831-1.607-4.82v-13.954h-13.816c-1.9582 0-3.5494-0.596-4.7735-1.79-1.1934-1.224-1.7901-2.723-1.7901-4.498 0-1.958 0.5814-3.473 1.7442-4.544 1.1935-1.102 2.8-1.653 4.8196-1.653h13.816z"></path>
    <path id="path837" d="m23.78 23.78v-13.999c0-1.9588 0.536-3.55 1.607-4.7741 1.071-1.2546 2.601-1.8819 4.59-1.8819s3.519 0.6273 4.59 1.8819c1.102 1.2241 1.653 2.8153 1.653 4.7737v13.999h13.816c2.019 0 3.611 0.551 4.773 1.653 1.194 1.071 1.791 2.586 1.791 4.544 0 1.989-0.597 3.534-1.791 4.636-1.162 1.102-2.754 1.652-4.773 1.652h-13.816v13.954c0 1.989-0.551 3.596-1.653 4.82-1.101 1.224-2.632 1.836-4.59 1.836s-3.488-0.612-4.59-1.836c-1.071-1.224-1.607-2.831-1.607-4.82v-13.954h-13.816c-1.9582 0-3.5494-0.596-4.7735-1.79-1.1934-1.224-1.7901-2.723-1.7901-4.498 0-1.958 0.5814-3.473 1.7442-4.544 1.1935-1.102 2.8-1.653 4.8196-1.653h13.816z"></path>
    <metadata>
      <rdf:RDF>
        <cc:Work>
          <dc:format>image/svg+xml</dc:format>
          <dc:type rdfResource="http://purl.org/dc/dcmitype/StillImage"></dc:type>
          <cc:license rdfResource="http://creativecommons.org/licenses/publicdomain/"></cc:license>
          <dc:publisher>
            <cc:Agent rdfAbout="http://openclipart.org/">
              <dc:title>Openclipart</dc:title>
            </cc:Agent>
          </dc:publisher>
        </cc:Work>
        <cc:License rdfAbout="http://creativecommons.org/licenses/publicdomain/">
          <cc:permits rdfResource="http://creativecommons.org/ns#Reproduction"></cc:permits>
          <cc:permits rdfResource="http://creativecommons.org/ns#Distribution"></cc:permits>
          <cc:permits rdfResource="http://creativecommons.org/ns#DerivativeWorks"></cc:permits>
        </cc:License>
      </rdf:RDF>
    </metadata>
  </symbol>
  <symbol xmlnsDc="http://purl.org/dc/elements/1.1/" xmlnsCc="http://creativecommons.org/ns#" xmlnsRdf="http://www.w3.org/1999/02/22-rdf-syntax-ns#" xmlnsSvg="http://www.w3.org/2000/svg" xmlns="http://www.w3.org/2000/svg" xmlnsSodipodi="http://sodipodi.sourceforge.net/DTD/sodipodi-0.dtd" xmlnsInkscape="http://www.inkscape.org/namespaces/inkscape" id="user" version="1.1" inkscapeVersion="0.91 r13725" sodipodiDocname="user.svg" viewBox="0 0 248.03149 248.03149">
    <defs id="defs4528"></defs>
    <sodipodi:namedview id="base" pagecolor="#ffffff" bordercolor="#666666" borderopacity="1.0" inkscapePageopacity="0.0" inkscapePageshadow="2" inkscapeZoom="0.35" inkscapeCx="-105" inkscapeCy="520" inkscapeDocumentUnits="px" inkscapeCurrentLayer="layer1" showgrid="false" inkscapeWindowWidth="1536" inkscapeWindowHeight="801" inkscapeWindowX="-8" inkscapeWindowY="-8" inkscapeWindowMaximized="1"></sodipodi:namedview>
    <metadata id="metadata4531">
      <rdf:RDF>
        <cc:Work rdfAbout="">
          <dc:format>image/svg+xml</dc:format>
          <dc:type rdfResource="http://purl.org/dc/dcmitype/StillImage"></dc:type>
          <dc:title></dc:title>
        </cc:Work>
      </rdf:RDF>
    </metadata>
    <g inkscapeLabel="Laag 1" inkscapeGroupmode="layer" id="layer1" transform="translate(0,-804.33071)">
      <path d="m 76.42344,1042.717 c -2.2224,-0.2267 -4.7225,-0.6821 -5.5559,-1.012 -0.8334,-0.3299 -9.3384,-2.8569 -18.9001,-5.6157 -9.5617,-2.7588 -17.4523,-5.0834 -17.5347,-5.1657 -0.2391,-0.2392 2.2788,-42.51159 2.8639,-48.08136 2.2676,-21.58406 6.0483,-32.16101 14.8649,-41.58634 7.5909,-8.11487 14.9224,-11.77177 27.5448,-13.73911 5.5107,-0.85889 39.4433,-1.23111 47.6206,-0.52237 13.0001,1.12673 21.3056,3.10399 29.1231,6.93322 3.9457,1.93271 5.526,3.0883 9.1422,6.68524 9.4197,9.36932 13.7657,22.358 15.8544,47.38281 1.1656,13.96551 2.4884,42.59711 1.9903,43.07931 -0.9176,0.8884 -17.7367,5.5971 -23.3654,6.5414 -20.4406,3.4292 -70.2575,6.467 -83.6481,5.1006 z" id="path4293-4" inkscapeConnectorCurvature="0"></path>
      <ellipse id="path4295-9" cx="106.96198" cy="883.10352" rx="40.658642" ry="38.327599"></ellipse>
    </g>
  </symbol>
</svg>